<svg t="1577778900092" class="icon" viewBox="0 0 1024 1024" version="1.1" xmlns="http://www.w3.org/2000/svg" p-id="3165" width="200" height="200"><path d="M904.064121 141.834739H119.106532c-12.82314 0-23.218648-10.395508-23.218647-23.218648s10.395508-23.218648 23.218647-23.218648h784.957589c12.82314 0 23.218648 10.395508 23.218647 23.218648 0 12.824164-10.395508 23.218648-23.218647 23.218648zM904.064121 404.532996H407.842194c-12.82314 0-23.218648-10.395508-23.218648-23.218647s10.395508-23.218648 23.218648-23.218648h496.221927c12.82314 0 23.218648 10.395508 23.218647 23.218648s-10.395508 23.218648-23.218647 23.218647zM904.064121 667.23023H407.842194c-12.82314 0-23.218648-10.395508-23.218648-23.218647s10.395508-23.218648 23.218648-23.218648h496.221927c12.82314 0 23.218648 10.395508 23.218647 23.218648s-10.395508 23.218648-23.218647 23.218647zM904.064121 929.927464H119.106532c-12.82314 0-23.218648-10.395508-23.218647-23.218647s10.395508-23.218648 23.218647-23.218648h784.957589c12.82314 0 23.218648 10.395508 23.218647 23.218648s-10.395508 23.218648-23.218647 23.218647zM250.455661 667.23023L95.887885 512.662454 250.455661 358.094677z" fill="#fff" p-id="3166"></path></svg>