<svg t="1577778961210" class="icon" viewBox="0 0 1024 1024" version="1.1" xmlns="http://www.w3.org/2000/svg" p-id="3878" width="200" height="200"><path d="M909.63024688 218.72875813H114.36879406c-19.11120281 0-34.57207969-15.12030844-34.57208062-33.81035719 0-18.68908875 15.46183688-33.81035625 34.57208062-33.81035625h795.26145281c19.11120281 0 34.57207969 15.12030844 34.57207969 33.81035625 0.00095906 18.69004781-15.55681219 33.81035625-34.57207969 33.81035718zM116.28941187 448.82395344h542.69061563c19.11120281 0 34.57207969 15.12030844 34.57208063 33.80939719 0 18.68908875-15.46183688 33.81035625-34.57208063 33.81035625H116.28941187c-19.11120281 0-34.57207969-15.12030844-34.57208062-33.81035625 0-18.68908875 15.46183688-33.80939719 34.57208063-33.80939719z m-1.92061781 355.00346719h792.38052563c19.11120281 0 34.57207969 15.12030844 34.57208062 33.81035718 0 18.68908875-15.46183688 33.80939719-34.57208062 33.80939719H114.36879406c-19.11120281 0-34.57207969-15.12030844-34.57208062-33.80939719 0-18.68908875 15.46087781-33.81035625 34.57208062-33.81035718z m700.85953688-196.09680563c-6.72216281 6.48040594-15.46183688 9.67312125-24.20055188 9.67312125-8.93154469 0-17.86212938-3.38074781-24.68118562-10.1432025-13.34838938-13.33591781-13.252455-34.74860063 0.38373937-47.80342969l91.61692407-88.09323281-89.98411125-82.92809437c-13.92495844-12.77278031-14.59746281-34.18546219-1.44094313-47.80342969 13.06058531-13.61796656 34.95677906-14.181105 48.88173844-1.40832469L931.81424563 446.28839281c6.81809719 6.29237344 10.75622719 15.02629219 10.85216249 24.23029125 0.09593531 9.204-3.64936594 18.03193406-10.37152781 24.51234094L815.22833094 607.730615z" p-id="3879"></path></svg>